<?xml version="1.0" encoding="utf-8"?>
<svg xmlns="http://www.w3.org/2000/svg" viewBox="31.283 19.3477 435.8839 109.7172" width="435.884px" height="109.717px" preserveAspectRatio="none"><g id="object-0" transform="matrix(1.0304419994354248, 0, 0, 1.0246089696884155, -6.588070869445797, -3.5489070415496826)" style=""><g id="SvgjsG7344" featurekey="JiLV9t-0" transform="matrix(1.673157, 0, 0, 1.673157, 35.079098, 20.673519)" fill="#3b546b" style=""><g xmlns="http://www.w3.org/2000/svg"><path d="M32.8,24.2c1.3,0,2.4-1,2.5-2.2c0.8-6.1,4.9-11.5,13.3-13.9C43.2,7.6,37.5,9.2,33,12.9c-2-1.7-4.3-2.9-6.6-3.7   c-0.4,1.1-0.6,2.3-0.7,3.4c3.3,3.2,4.2,7.1,4.6,9.5C30.5,23.3,31.6,24.2,32.8,24.2z"/><circle cx="33" cy="5.4" r="4.4"/><path d="M17.4,58c5.4,0.4,11.1-1.2,15.6-4.9c2,1.6,4.3,2.9,6.6,3.7c0.4-1.2,0.6-2.3,0.7-3.4c-3.3-3.2-4.2-7.1-4.6-9.4   c-0.2-1.3-1.3-2.2-2.5-2.2c-1.3,0-2.4,1-2.5,2.2C29.9,50.1,25.8,55.6,17.4,58z"/><circle cx="33" cy="60.6" r="4.4"/><path d="M47.2,18.8c-0.3-2.6-1-5-2-7.3c-1.1,0.5-2,1.2-2.9,1.9c0,4.6-2,8-3.5,9.9c-0.7,1-0.6,2.4,0.3,3.3c0.9,0.9,2.3,1,3.4,0.2   c4.9-3.8,11.6-4.7,19.3-0.4C58.2,22.3,53,19.4,47.2,18.8z"/><circle cx="52.5" cy="13.5" r="4.4"/><path d="M18.8,47.2c0.3,2.6,1,5,2,7.3c1.1-0.5,2-1.2,2.9-1.9c0-4.6,2-8,3.5-9.9c0.7-1,0.6-2.4-0.3-3.3c-0.9-0.9-2.4-1-3.4-0.2   c-4.9,3.8-11.6,4.7-19.3,0.4C7.8,43.7,13,46.6,18.8,47.2z"/><circle cx="13.5" cy="52.5" r="4.4"/><path d="M53.1,33c1.6-2,2.9-4.3,3.7-6.6c-1.1-0.4-2.3-0.6-3.4-0.7c-3.2,3.3-7.1,4.2-9.5,4.6c-1.3,0.2-2.2,1.3-2.2,2.5   c0,1.3,1,2.4,2.2,2.5c6.1,0.8,11.5,4.9,13.9,13.3C58.4,43.2,56.8,37.6,53.1,33z"/><circle cx="60.6" cy="33" r="4.4"/><path d="M12.9,33c-1.6,2-2.9,4.3-3.7,6.6c1.1,0.4,2.3,0.6,3.4,0.7c3.2-3.3,7.1-4.2,9.5-4.6c1.3-0.2,2.2-1.3,2.2-2.5   c0-1.3-1-2.4-2.2-2.5C15.8,29.9,10.4,25.8,8,17.4C7.6,22.8,9.2,28.4,12.9,33z"/><circle cx="5.4" cy="33" r="4.4"/><path d="M47.2,47.2c2.6-0.3,5-1,7.3-2c-0.5-1.1-1.2-2-1.9-2.9c-4.6,0-8-2-9.9-3.5c-1-0.7-2.4-0.7-3.3,0.3c-0.9,0.9-1,2.4-0.2,3.4   c3.8,4.9,4.7,11.6,0.4,19.3C43.7,58.2,46.6,53,47.2,47.2z"/><circle cx="52.5" cy="52.5" r="4.4"/><path d="M26.6,26.9c0.9-0.9,1-2.3,0.2-3.4c-3.8-4.9-4.7-11.6-0.4-19.3c-4.1,3.5-7,8.7-7.6,14.5c-2.6,0.3-5,1-7.3,2   c0.5,1.1,1.2,2,1.9,2.9c4.6,0,8,2,9.9,3.5C24.2,27.9,25.7,27.9,26.6,26.9z"/><circle cx="13.5" cy="13.5" r="4.4"/></g></g><g id="SvgjsG7345" featurekey="Yxc9Rz-0" transform="matrix(6.931237, 0, 0, 6.931237, 160.606812, -14.076379)" fill="#405b57" style=""><path d="M0.3 18.82 q0.06 -0.66 0.41 -1.32 t0.83 -1.08 q2.14 1.3 4.06 1.3 q0.84 0 1.23 -0.38 t0.39 -0.94 q0 -0.94 -1.26 -1.48 l-2.36 -1 q-1.38 -0.62 -2.12 -1.49 t-0.74 -2.21 q0 -0.92 0.37 -1.68 t1.04 -1.32 t1.59 -0.87 t2.04 -0.31 q2.24 0 4.52 1.14 q-0.1 1.54 -1.08 2.4 q-2.04 -0.98 -3.6 -0.98 q-0.8 0 -1.2 0.36 t-0.4 0.82 q0 0.78 1.18 1.26 l2.4 1.02 q1.52 0.64 2.27 1.64 t0.75 2.32 q0 0.94 -0.34 1.72 t-1.01 1.35 t-1.67 0.89 t-2.34 0.32 q-2.6 0 -4.96 -1.48 z M12.700000000000001 20 l0 -13.66 q0.62 -0.12 1.6 -0.12 t1.62 0.12 l0 13.66 q-0.64 0.12 -1.62 0.12 t-1.6 -0.12 z M24.28 12.24 l3.14 -0.02 q2.12 0 2.12 2 l0 5.26 q-2.58 0.82 -5.42 0.82 q-1.44 0 -2.55 -0.48 t-1.86 -1.38 t-1.13 -2.21 t-0.38 -2.97 q0 -1.82 0.53 -3.17 t1.42 -2.25 t2.05 -1.35 t2.42 -0.45 q2.6 0 4.88 1.44 q-0.02 0.32 -0.15 0.65 t-0.32 0.64 t-0.44 0.56 t-0.51 0.43 q-1.66 -1.08 -3.36 -1.08 q-3.26 0 -3.26 4.56 q0 4.54 3.34 4.54 q0.46 0 0.89 -0.04 t0.85 -0.12 l0 -1.34 q0 -0.46 0.01 -0.8 t0.03 -0.58 l-1 0 q-0.86 0 -1.19 -0.33 t-0.33 -1.03 q0 -0.6 0.22 -1.3 z M35.400000000000006 17.14 q-0.54 0 -0.8 -0.02 l-0.86 2.9 q-0.48 0.12 -1.34 0.12 q-0.96 0 -1.56 -0.22 l-0.1 -0.16 l4.4 -13.42 q0.78 -0.12 1.82 -0.12 q1.18 0 1.88 0.14 l4.32 13.44 q-0.7 0.38 -1.58 0.38 q-1.04 0 -1.46 -0.36 t-0.72 -1.38 l-0.38 -1.32 q-0.26 0.02 -0.78 0.02 l-2.84 0 z M35.34 14.620000000000001 l0.8 -0.02 l1.46 0 q0.1 0 0.35 0.01 t0.37 0.01 l-0.34 -1.24 q-0.48 -1.68 -1.1 -4.12 l-0.12 0 q-0.16 0.86 -0.96 3.82 z" style="fill: rgb(59, 84, 107);"/></g></g></svg>